# xmcd
#
# Track frame offsets:
#	150
#	20224
#	42133
#	69918
#
# Disc length: 1250 seconds
#
# Revision: 0
# Processed by: cddbd v1.5.2PL0 Copyright (c) Steve Scherf et al.
# Submitted via: audiograbber 1.83.01
#
DISCID=2d04e004
DTITLE=Attractha - Engraved
DYEAR=2013
DGENRE=Metal
TTITLE0=Darkness
TTITLE1=The Choice
TTITLE2=Blessed Life
TTITLE3=Beginning
EXTD=
EXTT0=
EXTT1=
EXTT2=
EXTT3=
PLAYORDER=
